<svg xmlns="http://www.w3.org/2000/svg" width="20.995" height="15.557" viewBox="0 0 20.995 15.557"><path fill="#8C8C7C" d="M-9.21 7.778a6.74 6.74 0 1 1-13.481-.001 6.74 6.74 0 0 1 13.481.001zm-10.242-.331a9.588 9.588 0 0 1 .47-2.682l-2.252-.002a6.043 6.043 0 0 0-.79 2.684h2.572zm3.173-2.683h-2.007a8.925 8.925 0 0 0-.508 2.684h2.515V4.764zm0-3.06A7.268 7.268 0 0 0-18.018 4.1h1.739V1.704zm-4.52 2.396h2.064c.348-.83.825-1.6 1.375-2.237-1.419.32-2.634 1.177-3.439 2.237zm10.923 3.347a6.043 6.043 0 0 0-.79-2.684l-2.252.002c.274.835.438 1.738.47 2.682h2.572zm-5.745 0h2.515a8.87 8.87 0 0 0-.508-2.684h-2.007v2.684zm0-3.347h1.739a7.292 7.292 0 0 0-1.739-2.396V4.1zm1.08-2.238a8.479 8.479 0 0 1 1.375 2.237h2.064c-.804-1.059-2.02-1.916-3.439-2.237zm-7.483 6.247c.052.973.333 1.886.79 2.685l2.252-.002a9.668 9.668 0 0 1-.47-2.683h-2.572zm5.745 0h-2.515c.034.945.209 1.847.508 2.685h2.007V8.109zm0 3.349h-1.739a7.278 7.278 0 0 0 1.739 2.396v-2.396zm-1.08 2.237a8.479 8.479 0 0 1-1.375-2.237h-2.064c.804 1.061 2.019 1.917 3.439 2.237zm4.911-5.586a9.595 9.595 0 0 1-.47 2.683l2.252.002a6.03 6.03 0 0 0 .789-2.685h-2.571zm-3.173 2.685h2.007a8.895 8.895 0 0 0 .509-2.685h-2.516v2.685zm0 3.06a7.254 7.254 0 0 0 1.739-2.396h-1.739v2.396zm4.519-2.396h-2.064c-.348.83-.825 1.6-1.375 2.237 1.419-.32 2.635-1.176 3.439-2.237z"/><path fill="#5E5E56" d="M0 3.434h7.62v7.619H0zm14.766 3.542l6.229-.001-6.228 6.231-6.231-6.229z"/><path fill="#8C8C7C" d="M16.233 7.778l-7.07 7.072-7.074-7.072L9.16.706z"/><path fill="#302F2D" d="M9.161 1.414l6.365 6.364-6.363 6.364-6.365-6.364 6.363-6.364m0-1.414l-.707.707-6.363 6.364-.707.707.707.707 6.365 6.364.707.707.707-.706 6.363-6.364.707-.707-.707-.707L9.868.707 9.161 0z"/></svg>